<svg width="112" height="95" viewBox="0 0 112 95" fill="none" xmlns="http://www.w3.org/2000/svg">
<path fill-rule="evenodd" clip-rule="evenodd" d="M94.5187 67.4342C87.2879 81.4124 72.6959 90.9664 55.8725 90.9664C39.049 90.9664 24.4571 81.4124 17.2262 67.4342H12.7715C20.3093 83.6912 36.7742 94.9664 55.8725 94.9664C74.9708 94.9664 91.4356 83.6912 98.9735 67.4342H94.5187ZM17.4352 27.1333C24.7357 13.3725 39.2095 4 55.8725 4C72.5354 4 87.0092 13.3725 94.3098 27.1333H98.7863C91.1655 11.0911 74.8142 0 55.8725 0C36.9307 0 20.5795 11.0911 12.9587 27.1333H17.4352Z" fill="white"/>
<path d="M13.6072 49.7291H4.86304L4.81628 44.6323H12.0407C13.3188 44.6323 14.3553 44.4764 15.1502 44.1647C15.9607 43.8529 16.553 43.4009 16.9271 42.8086C17.3012 42.2008 17.4882 41.4526 17.4882 40.5642C17.4882 39.551 17.3012 38.7327 16.9271 38.1093C16.553 37.4858 15.9607 37.0338 15.1502 36.7532C14.3553 36.4571 13.3266 36.309 12.0641 36.309H7.62188V64.4351H0V30.3939H12.0641C14.1059 30.3939 15.9296 30.5809 17.535 30.955C19.1404 31.3291 20.5042 31.9058 21.6265 32.6851C22.7643 33.4644 23.6294 34.4386 24.2217 35.6076C24.814 36.7766 25.1101 38.156 25.1101 39.7459C25.1101 41.1331 24.7984 42.4268 24.1749 43.6269C23.567 44.8271 22.5851 45.8013 21.229 46.5494C19.873 47.2976 18.0571 47.7029 15.7815 47.7652L13.6072 49.7291ZM13.3032 64.4351H2.9225L5.68134 58.5434H13.3032C14.4722 58.5434 15.423 58.3563 16.1556 57.9823C16.8881 57.6082 17.4259 57.1016 17.7688 56.4626C18.1117 55.8235 18.2831 55.1065 18.2831 54.3116C18.2831 53.3764 18.1195 52.5659 17.7922 51.8801C17.4804 51.1943 16.9817 50.6643 16.2959 50.2902C15.6256 49.9162 14.7294 49.7291 13.6072 49.7291H6.7802L6.82696 44.6323H15.1736L16.9505 46.643C19.117 46.5962 20.8472 46.9469 22.1408 47.6951C23.4501 48.4276 24.3931 49.394 24.9698 50.5942C25.5465 51.7943 25.8349 53.0647 25.8349 54.4051C25.8349 56.6184 25.3595 58.4732 24.4087 59.9696C23.4579 61.4503 22.0473 62.5647 20.1769 63.3129C18.3221 64.0611 16.0309 64.4351 13.3032 64.4351Z" fill="white"/>
<path d="M53.9142 58.5434V64.4351H35.7948V58.5434H53.9142ZM38.3899 30.3939V64.4351H30.7681V30.3939H38.3899ZM51.5763 44.0945V49.7993H35.7948V44.0945H51.5763ZM53.9376 30.3939V36.309H35.7948V30.3939H53.9376Z" fill="white"/>
<path d="M73.9743 30.3939V64.4351H66.3758V30.3939H73.9743ZM84.3316 30.3939V36.309H56.2289V30.3939H84.3316Z" fill="white"/>
<path d="M107.384 55.8313C107.384 55.0364 107.26 54.335 107.01 53.7271C106.776 53.1036 106.356 52.5425 105.748 52.0437C105.155 51.545 104.329 51.0696 103.269 50.6176C102.225 50.1655 100.9 49.7057 99.2948 49.2381C97.6114 48.7394 96.0917 48.186 94.7357 47.5782C93.3797 46.9547 92.2185 46.2455 91.2521 45.4506C90.2857 44.6557 89.5453 43.7438 89.031 42.7151C88.5166 41.6864 88.2595 40.5096 88.2595 39.1847C88.2595 37.8599 88.5322 36.6363 89.0778 35.5141C89.6233 34.3918 90.4026 33.4177 91.4157 32.5916C92.4445 31.7499 93.668 31.0953 95.0864 30.6277C96.5048 30.1601 98.0868 29.9263 99.8325 29.9263C102.389 29.9263 104.555 30.4172 106.332 31.3992C108.125 32.3656 109.488 33.6359 110.424 35.2101C111.359 36.7688 111.826 38.4366 111.826 40.2135H107.338C107.338 38.9354 107.065 37.8053 106.519 36.8234C105.974 35.8258 105.148 35.0465 104.041 34.4854C102.934 33.9087 101.531 33.6203 99.8325 33.6203C98.2271 33.6203 96.9023 33.8619 95.8579 34.3451C94.8136 34.8283 94.0343 35.4829 93.5199 36.309C93.0212 37.1351 92.7718 38.0781 92.7718 39.138C92.7718 39.855 92.9199 40.5096 93.216 41.1019C93.5277 41.6786 94.0031 42.2163 94.6422 42.7151C95.2968 43.2139 96.1229 43.6737 97.1205 44.0945C98.1336 44.5154 99.3416 44.9206 100.744 45.3103C102.677 45.8558 104.345 46.4637 105.748 47.1339C107.15 47.8042 108.304 48.5601 109.208 49.4018C110.128 50.2279 110.806 51.1709 111.242 52.2308C111.694 53.2751 111.92 54.4597 111.92 55.7845C111.92 57.1717 111.639 58.4265 111.078 59.5487C110.517 60.671 109.714 61.6295 108.67 62.4244C107.626 63.2194 106.371 63.835 104.906 64.2715C103.456 64.6923 101.835 64.9027 100.043 64.9027C98.4687 64.9027 96.9178 64.6845 95.3903 64.2481C93.8784 63.8117 92.499 63.157 91.2521 62.2842C90.0207 61.4113 89.031 60.3358 88.2828 59.0577C87.5503 57.764 87.184 56.2677 87.184 54.5688H91.6729C91.6729 55.7378 91.8989 56.7431 92.3509 57.5848C92.803 58.4109 93.4186 59.0967 94.198 59.6422C94.9929 60.1878 95.8891 60.593 96.8867 60.858C97.8998 61.1074 98.9519 61.2321 100.043 61.2321C101.617 61.2321 102.95 61.0139 104.041 60.5774C105.132 60.141 105.958 59.5175 106.519 58.707C107.096 57.8965 107.384 56.9379 107.384 55.8313Z" fill="white"/>
</svg>
