<?xml version="1.0" encoding="utf-8"?>
<!-- Generator: Adobe Illustrator 23.0.1, SVG Export Plug-In . SVG Version: 6.00 Build 0)  -->
<svg version="1.1" xmlns="http://www.w3.org/2000/svg" xmlns:xlink="http://www.w3.org/1999/xlink" x="0px" y="0px"
	 viewBox="0 0 841.89 595.28" style="enable-background:new 0 0 841.89 595.28;" xml:space="preserve">
<style type="text/css">
	.st0{display:none;}
	.st1{fill:#42276E;}
	.st2{display:inline;}
	.st3{fill:#FFFFFF;}
	.st4{display:inline;fill:#FFFFFF;}
	.st5{fill:#F39001;}
</style>
<g id="BRANCO" class="st0">
	<rect x="-4.09" y="-4.92" class="st1" width="850.34" height="604.03"/>
	<g>
		<g class="st2">
			<path class="st3" d="M227.11,459.43c0-7.71-5.99-10.56-13.65-10.56h-12.7l-7.71,38.57h9.49l2.49-12.58h3.92
				C218.63,474.85,227.11,470.7,227.11,459.43z M210.08,467.38h-3.5l2.14-11.04h3.44c3.5,0,5.58,1.42,5.58,4.51
				C217.74,465.12,214.95,467.38,210.08,467.38z"/>
			<path class="st3" d="M251.2,448.86l-20.18,38.57h10.44l3.98-8.78h10.62l0.24,8.78h9.97l-3.68-38.57H251.2z M248.7,471.53
				l2.02-4.51c1.66-3.68,2.97-7.24,4.51-11.04h0.24c0,3.92,0.12,7.36,0.24,11.04l0.12,4.51H248.7z"/>
			<path class="st3" d="M297.04,457.36c-1.66,2.96-2.96,5.57-4.5,8.65h-0.24c-0.47-3.08-0.83-5.57-1.3-8.53l-1.24-8.53h-9.84
				l6.1,25.01l-2.67,13.51h9.42l2.73-13.51l16.36-25.01h-10.19L297.04,457.36z"/>
		</g>
		<g class="st2">
			<polygon class="st3" points="362.83,487.43 372.32,487.43 375.29,472.72 387.27,472.72 388.81,464.77 376.83,464.77 
				378.37,456.82 392.49,456.82 394.03,448.87 370.54,448.87 			"/>
			<path class="st3" d="M424.19,448.96c-9.82,0-19.17,8.9-19.17,22.71c0,10.04,5.82,15.75,14.38,15.75c9.82,0,19.17-8.9,19.17-22.71
				C438.57,454.67,432.75,448.96,424.19,448.96z M419.85,479.55c-3.42,0-5.48-3.08-5.48-8.45c0-8.56,5.14-14.27,9.36-14.27
				c3.42,0,5.48,3.08,5.48,8.45C429.21,473.84,424.08,479.55,419.85,479.55z"/>
			<path class="st3" d="M481.83,459.08c0-7.48-5.93-10.2-13.64-10.2h-12.7l-7.71,38.56h9.49l2.61-13.29h3.97l4.45,13.29h9.97
				l-5.75-14.77C477.92,470.59,481.83,466.25,481.83,459.08z M464.86,466.67h-3.44l2.02-10.32h3.44c3.56,0,5.58,1.31,5.58,4.15
				C472.46,464.18,469.97,466.67,464.86,466.67z"/>
		</g>
		<polygon class="st4" points="528.6,487.41 538.08,487.41 541.05,472.71 553.03,472.71 554.57,464.76 542.59,464.76 544.13,456.82 
			558.24,456.82 559.79,448.87 536.31,448.87 		"/>
		<path class="st4" d="M599.11,448.87l-4.31,21.44c-1.28,6.52-3.15,9.09-6.52,9.09c-3.84,0-5.01-1.98-5.01-5.83
			c0-1.4,0.23-2.8,0.47-4.31l4.08-20.39h-9.32l-3.73,18.52c-0.35,1.98-0.82,4.66-0.82,6.41c0,9.32,4.66,13.63,14.1,13.63
			c8.62,0,13.52-5.48,15.85-17.36l4.31-21.2H599.11z"/>
		<path class="st4" d="M646.79,448.87l-2.49,12.34c-0.95,4.63-1.19,10.44-1.54,14.59h-0.24l-1.9-8.66l-5.34-18.27h-9.13l-7.71,38.56
			h9.02l2.49-12.46c0.95-4.63,1.31-10.08,1.66-14.47h0.24l1.78,8.66l5.34,18.27h9.13l7.71-38.56H646.79z"/>
		<path class="st4" d="M289.2,185.03c-9.52-5.53-20.09-6.93-32.42-6.93c-19.31,0-37.53,6.52-53.94,22.3l2.5-15.32
			c0.6-3.66-2.23-6.97-5.93-6.97h-39.91c-2.92,0-5.42,2.1-5.92,4.97l-38.8,219.98c-0.65,3.68,2.18,7.05,5.92,7.05h39.83
			c2.91,0,5.41-2.09,5.92-4.96l13.29-75.06c4.17,5.08,11.02,9.14,18.14,12.31c7.12,3.17,14.71,4.76,22.78,4.76
			c16.5,0,31.42-3.56,44.75-10.68c13.33-7.12,24.39-16.91,33.19-29.38c8.79-12.47,14.91-26.63,18.36-42.5
			c1.63-7.62,2.45-14.87,2.45-21.76c0-13.06-2.65-24.57-7.96-34.55C306.14,198.31,298.72,190.56,289.2,185.03z M270.71,262.15
			c-1.72,7.71-4.9,14.64-9.52,20.81c-4.63,6.17-10.36,11.04-17.21,14.62c-6.85,3.58-14.26,5.37-22.24,5.37
			c-6.71,0-12.4-1.4-17.07-4.22c-4.67-2.81-8.18-6.6-10.54-11.36c-2.36-4.76-3.54-10.04-3.54-15.85c0-3.35,0.32-6.48,0.95-9.38
			c1.45-6.89,4.56-13.53,9.32-19.93c4.76-6.39,10.56-11.58,17.41-15.57c6.85-3.99,13.94-5.98,21.29-5.98
			c10.61,0,18.66,2.81,24.14,8.43c5.49,5.62,8.23,13.06,8.23,22.31C271.93,254.85,271.52,258.43,270.71,262.15z"/>
		<path class="st4" d="M726.93,178.25h-27.92c-31.57,0-58.58,22.66-64.06,53.75l-3.71,21.05h-28.09c-2.91,0-5.41,2.09-5.91,4.96
			l-5.92,33.58c-0.65,3.68,2.18,7.05,5.91,7.05h25.97l-9.76,54.07c-1.26,7.17-7.5,12.4-14.78,12.4h-15.5
			c-2.91,0-5.41,2.09-5.91,4.96l-5.83,32.98c-0.65,3.68,2.18,7.05,5.91,7.05l22.95,0.02c31.93,0.03,59.27-22.89,64.82-54.34
			l10.06-57.08l32.67-0.06c2.91-0.01,5.4-2.1,5.9-4.96l5.92-33.58c0.65-3.68-2.19-7.05-5.92-7.05l-30.53,0.05l2.45-13.87
			c1.42-8.05,8.4-13.92,16.58-13.95l18.5-0.03c2.91,0,5.4-2.09,5.9-4.96l6.2-35C733.5,181.62,730.67,178.25,726.93,178.25z"/>
		<g id="Logo_2_" class="st2">
			<path class="st3" d="M561.12,317.82H396.83v46.29h73.25c3.41,0,6.17,2.76,6.17,6.17v33.88c0,3.41,2.76,6.17,6.17,6.17h43.2
				c3.41,0,6.17-2.76,6.17-6.17v-33.92c0-3.41,2.76-6.17,6.17-6.17h23.17c3.41,0,6.17-2.76,6.17-6.17v-33.92
				C567.29,320.58,564.53,317.82,561.12,317.82z"/>
			<path class="st3" d="M550.88,153.98l-39.11-22.58c-5.9-3.41-13.44-1.38-16.85,4.51l-78.33,135.67
				c-4.75,8.22,1.19,18.5,10.68,18.5h75.88c4.41,0,8.48-2.35,10.68-6.17l49.08-85.01C572,183.18,566.61,163.06,550.88,153.98z
				 M519.7,174.27l8.12,4.69l-13.85,23.98l-8.12-4.69L519.7,174.27z M500.58,170.35c1.7-2.95,5.47-3.96,8.42-2.26l2.67,1.54
				l-13.85,23.98l-8.01-4.63L500.58,170.35z M523.69,222.9c-1.7,2.95-5.47,3.96-8.42,2.26l-29.41-16.98
				c-2.95-1.7-3.96-5.47-2.26-8.42l1.58-2.74l40.09,23.14L523.69,222.9z M540.67,193.5l-10.76,18.64l-7.9-4.56l13.85-23.98
				l2.56,1.48C541.36,186.78,542.37,190.55,540.67,193.5z"/>
			<path class="st3" d="M336.33,278.84l95.38-165.2c6.81-11.8,21.9-15.84,33.7-9.03l5.46,3.15c2.95,1.7,3.96,5.47,2.26,8.42
				L359.24,313.43c-1.7,2.95-5.47,3.96-8.42,2.26l-5.46-3.15C333.56,305.73,329.52,290.64,336.33,278.84z"/>
		</g>
	</g>
</g>
<g id="LARANJA">
	<g>
		<g>
			<path class="st5" d="M236.53,450.58c0-7.71-5.99-10.56-13.65-10.56h-12.7l-7.71,38.57h9.49l2.49-12.58h3.92
				C228.04,466.01,236.53,461.85,236.53,450.58z M219.5,458.53H216l2.14-11.04h3.44c3.5,0,5.58,1.42,5.58,4.51
				C227.15,456.27,224.37,458.53,219.5,458.53z"/>
			<path class="st5" d="M260.61,440.02l-20.18,38.57h10.44l3.98-8.78h10.62l0.24,8.78h9.97l-3.68-38.57H260.61z M258.12,462.68
				l2.02-4.51c1.66-3.68,2.97-7.24,4.51-11.04h0.24c0,3.92,0.12,7.36,0.24,11.04l0.12,4.51H258.12z"/>
			<path class="st5" d="M306.46,448.51c-1.66,2.96-2.96,5.57-4.5,8.65h-0.24c-0.47-3.08-0.83-5.57-1.3-8.53l-1.24-8.53h-9.84
				l6.1,25.01l-2.67,13.51h9.42l2.73-13.51l16.36-25.01h-10.19L306.46,448.51z"/>
		</g>
		<g>
			<polygon class="st5" points="372.25,478.58 381.74,478.58 384.7,463.87 396.69,463.87 398.23,455.92 386.25,455.92 
				387.79,447.97 401.91,447.97 403.45,440.02 379.96,440.02 			"/>
			<path class="st5" d="M433.61,440.11c-9.82,0-19.17,8.9-19.17,22.71c0,10.04,5.82,15.75,14.38,15.75c9.82,0,19.17-8.9,19.17-22.71
				C447.99,445.82,442.17,440.11,433.61,440.11z M429.27,470.7c-3.42,0-5.48-3.08-5.48-8.45c0-8.56,5.14-14.27,9.36-14.27
				c3.42,0,5.48,3.08,5.48,8.45C438.63,464.99,433.49,470.7,429.27,470.7z"/>
			<path class="st5" d="M491.25,450.23c0-7.48-5.93-10.2-13.64-10.2h-12.7l-7.71,38.56h9.49l2.61-13.29h3.97l4.45,13.29h9.97
				l-5.75-14.77C487.33,461.74,491.25,457.41,491.25,450.23z M474.28,457.82h-3.44l2.02-10.32h3.44c3.56,0,5.58,1.31,5.58,4.15
				C481.88,455.33,479.38,457.82,474.28,457.82z"/>
		</g>
		<polygon class="st5" points="538.02,478.56 547.5,478.56 550.47,463.86 562.44,463.86 563.99,455.91 552.01,455.91 553.55,447.97 
			567.66,447.97 569.2,440.02 545.72,440.02 		"/>
		<path class="st5" d="M608.53,440.02l-4.31,21.44c-1.28,6.52-3.15,9.09-6.52,9.09c-3.84,0-5.01-1.98-5.01-5.83
			c0-1.4,0.23-2.8,0.47-4.31l4.08-20.39h-9.32l-3.73,18.52c-0.35,1.98-0.82,4.66-0.82,6.41c0,9.32,4.66,13.63,14.1,13.63
			c8.62,0,13.52-5.48,15.85-17.36l4.31-21.2H608.53z"/>
		<path class="st5" d="M656.21,440.02l-2.49,12.34c-0.95,4.63-1.19,10.44-1.54,14.59h-0.24l-1.9-8.66l-5.34-18.27h-9.13l-7.71,38.56
			h9.02l2.49-12.46c0.95-4.63,1.31-10.08,1.66-14.47h0.24l1.78,8.66l5.34,18.27h9.13l7.71-38.56H656.21z"/>
		<path class="st5" d="M298.62,176.18c-9.52-5.53-20.09-6.93-32.42-6.93c-19.31,0-37.53,6.52-53.94,22.3l2.5-15.32
			c0.6-3.66-2.23-6.97-5.93-6.97h-39.91c-2.92,0-5.42,2.1-5.92,4.97l-38.8,219.98c-0.65,3.68,2.18,7.05,5.92,7.05h39.83
			c2.91,0,5.41-2.09,5.92-4.96l13.29-75.06c4.17,5.08,11.02,9.14,18.14,12.31c7.12,3.17,14.71,4.76,22.78,4.76
			c16.5,0,31.42-3.56,44.75-10.68c13.33-7.12,24.39-16.91,33.19-29.38c8.79-12.47,14.91-26.63,18.36-42.5
			c1.63-7.62,2.45-14.87,2.45-21.76c0-13.06-2.65-24.57-7.96-34.55C315.55,189.47,308.14,181.71,298.62,176.18z M280.12,253.3
			c-1.72,7.71-4.9,14.64-9.52,20.81c-4.63,6.17-10.36,11.04-17.21,14.62c-6.85,3.58-14.26,5.37-22.24,5.37
			c-6.71,0-12.4-1.4-17.07-4.22c-4.67-2.81-8.18-6.6-10.54-11.36c-2.36-4.76-3.54-10.04-3.54-15.85c0-3.35,0.32-6.48,0.95-9.38
			c1.45-6.89,4.56-13.53,9.32-19.93c4.76-6.39,10.56-11.58,17.41-15.57c6.85-3.99,13.94-5.98,21.29-5.98
			c10.61,0,18.66,2.81,24.14,8.43c5.49,5.62,8.23,13.06,8.23,22.31C281.35,246,280.94,249.58,280.12,253.3z"/>
		<path class="st5" d="M736.35,169.4h-27.92c-31.57,0-58.58,22.66-64.06,53.75l-3.71,21.05h-28.09c-2.91,0-5.41,2.09-5.91,4.96
			l-5.92,33.58c-0.65,3.68,2.18,7.05,5.91,7.05h25.97l-9.76,54.07c-1.26,7.17-7.5,12.4-14.78,12.4h-15.5
			c-2.91,0-5.41,2.09-5.91,4.96l-5.83,32.98c-0.65,3.68,2.18,7.05,5.91,7.05l22.95,0.02c31.93,0.03,59.27-22.89,64.82-54.34
			l10.06-57.08l32.67-0.06c2.91-0.01,5.4-2.1,5.9-4.96l5.92-33.58c0.65-3.68-2.19-7.05-5.92-7.05l-30.53,0.05l2.45-13.87
			c1.42-8.05,8.4-13.92,16.58-13.95l18.5-0.03c2.91,0,5.4-2.09,5.9-4.96l6.2-35C742.92,172.77,740.09,169.4,736.35,169.4z"/>
		<g id="Logo_1_">
			<path class="st5" d="M570.54,308.97H406.25v46.29h73.25c3.41,0,6.17,2.76,6.17,6.17v33.88c0,3.41,2.76,6.17,6.17,6.17h43.2
				c3.41,0,6.17-2.76,6.17-6.17v-33.92c0-3.41,2.76-6.17,6.17-6.17h23.17c3.41,0,6.17-2.76,6.17-6.17v-33.92
				C576.71,311.73,573.95,308.97,570.54,308.97z"/>
			<path class="st5" d="M560.29,145.13l-39.11-22.58c-5.9-3.41-13.44-1.38-16.85,4.51l-78.33,135.67
				c-4.75,8.22,1.19,18.5,10.68,18.5h75.88c4.41,0,8.48-2.35,10.68-6.17l49.08-85.01C581.42,174.33,576.03,154.21,560.29,145.13z
				 M529.12,165.42l8.12,4.69l-13.85,23.98l-8.12-4.69L529.12,165.42z M510,161.5c1.7-2.95,5.47-3.96,8.42-2.26l2.67,1.54
				l-13.85,23.98l-8.01-4.63L510,161.5z M533.11,214.05c-1.7,2.95-5.47,3.96-8.42,2.26l-29.41-16.98c-2.95-1.7-3.96-5.47-2.26-8.42
				l1.58-2.74l40.09,23.14L533.11,214.05z M550.09,184.65l-10.76,18.64l-7.9-4.56l13.85-23.98l2.56,1.48
				C550.78,177.93,551.79,181.7,550.09,184.65z"/>
			<path class="st5" d="M345.75,269.99l95.38-165.2c6.81-11.8,21.9-15.84,33.7-9.03l5.46,3.15c2.95,1.7,3.96,5.47,2.26,8.42
				L368.66,304.58c-1.7,2.95-5.47,3.96-8.42,2.26l-5.46-3.15C342.98,296.88,338.94,281.79,345.75,269.99z"/>
		</g>
	</g>
</g>
</svg>
